<svg enable-background="new 0 0 43.991 60.594" viewBox="0 0 43.991 60.594" xmlns="http://www.w3.org/2000/svg"><path clip-rule="evenodd" d="m32.206 0c-4.315 0-8.277 2.257-10.204 4.212-2.76 2.801-8.509 7.123-11.419 21.72-1.314 6.592.917 18.69 5.709 26.404 1.427-10.398 9.175-15.904 19.218-24.318 6.649-5.57 8.481-10.456 8.481-16.41 0-7.267-6.087-11.608-11.785-11.608z" fill="#20efda" fill-rule="evenodd"/><path clip-rule="evenodd" d="m34.336 26.034c-4.095-14.602-9.586-19.021-12.347-21.822-1.927-1.955-5.889-4.212-10.204-4.212-5.891 0-11.785 4.341-11.785 11.609 0 5.953 1.961 10.69 8.481 16.41 10.869 9.535 21.166 17.691 18.209 32.575 8.836-9.957 9.991-26.2 7.646-34.56z" fill="#3ee4ff" fill-rule="evenodd"/><path d="m30.792 4.278c5.978 0 9.024 3.519 9.024 9.412 0 4.828-4.4 8.873-4.579 9.053l-1.452 1.407c-3.018-9.819-6.655-14.615-9.395-17.526 1.822-1.225 4.175-2.346 6.402-2.346z" fill="#13cfd8"/><path d="m33.785 24.149-11.006 10.663c-.241.241-.559.363-.881.363-.318 0-.64-.122-.877-.363l-10.223-9.921c2.222-10.292 5.876-15.227 8.71-18.203.999.677 1.835 1.378 2.39 1.933.575-.571 1.448-1.305 2.492-1.998 2.74 2.911 6.377 7.706 9.395 17.526z" fill="#0cbae8"/><path d="m34.335 26.033c-.184-.648-.367-1.276-.551-1.884l-11.005 10.663c-.241.241-.559.363-.881.363-.318 0-.64-.122-.877-.363l-10.223-9.921c-.073.343-.147.689-.216 1.04-.212 1.072-.334 2.288-.363 3.605 4.237 3.707 8.282 7.263 11.357 11.165 3.344-4.066 7.984-7.719 13.314-12.164-.151-.893-.339-1.734-.555-2.504z" fill="#13cfd8"/><path d="m24.389 6.622c-.918-.971-1.733-1.733-2.394-2.402-.677.685-1.537 1.464-2.487 2.467.999.677 1.835 1.378 2.39 1.933.575-.57 1.447-1.304 2.491-1.998z" fill="#13cfd8"/><path d="m13.008 4.278c2.267 0 4.665 1.162 6.5 2.41-2.834 2.977-6.488 7.911-8.71 18.203l-2.255-2.19c-.159-.139-4.559-4.184-4.559-9.012 0-5.892 3.042-9.411 9.024-9.411z" fill="#2ec4ff"/></svg>